Coordinates
version=1
nRows=5
nColumns=40
inDegrees=yes

Units are S.I. units (second, meters, Newtons, ...)
If the header above contains a line with 'inDegrees', this indicates whether rotational values are in degrees (yes) or radians (no).

endheader
time	pelvis_tilt	pelvis_list	pelvis_rotation	pelvis_tx	pelvis_ty	pelvis_tz	hip_flexion_r	hip_adduction_r	hip_rotation_r	knee_angle_r	knee_angle_r_beta	ankle_angle_r	subtalar_angle_r	mtp_angle_r	hip_flexion_l	hip_adduction_l	hip_rotation_l	knee_angle_l	knee_angle_l_beta	ankle_angle_l	subtalar_angle_l	mtp_angle_l	lumbar_extension	lumbar_bending	lumbar_rotation	arm_flex_r	arm_add_r	arm_rot_r	elbow_flex_r	pro_sup_r	wrist_flex_r	wrist_dev_r	arm_flex_l	arm_add_l	arm_rot_l	elbow_flex_l	pro_sup_l	wrist_flex_l	wrist_dev_l
      5.70000000000000017764	     40.41491829016905512617	      4.09614200543978057567	   -177.00613479735034161422	      0.41180185280196135444	      0.80128931012126569655	     -0.61051456929955549846	     69.95637173835014266388	     -9.49206508686917516115	    -16.33323618171063529303	     27.33524015507203230868	      0.47708994252937231284	     -1.85971225998048161898	      0.00000000000000000000	      0.00000000000000000000	     72.15539599856913355325	     -6.16322044870971907926	     -0.46958915315041005467	     25.98707748309892906491	      0.45356006505095736170	     -6.12153521050096305345	      0.00000000000000000000	      0.00000000000000000000	    -17.83477473960093107053	     11.04372758497820683488	      5.59913926879272683124	     48.63771450645225513654	    -16.00900900577996566199	     62.60989959826589057457	      1.77912866229955879405	     87.61631226366688451890	      0.00000000000000000000	      0.00000000000000000000	     37.25589545055667173301	     -2.23285259388688617221	     85.29859134306782664225	      0.57186487790113338381	      2.54563302390419110566	      0.00000000000000000000	      0.00000000000000000000
      5.70500000000000007105	     40.23743884106915658094	      4.11102737510791538256	   -176.99020362821042340329	      0.41155762401645890058	      0.80165112106928104740	     -0.61070626047336773468	     69.78138777542822879241	     -9.46067454486320791318	    -16.31378985448811747005	     27.37670527697358124897	      0.47781364543129517530	     -1.85551924592006423076	      0.00000000000000000000	      0.00000000000000000000	     71.97944628041130954443	     -6.19333966278386771620	     -0.45460305205752549185	     26.02072425333117067225	      0.45414731197417201880	     -6.11620502684629219203	      0.00000000000000000000	      0.00000000000000000000	    -17.47647062751878621611	     11.01904152961244953701	      5.55806092601749490711	     48.27570278558927441281	    -15.96518551319594436677	     62.61738279227801484694	      1.76394229630286658583	     87.62247989753296906201	      0.00000000000000000000	      0.00000000000000000000	     37.12579106494118974524	     -2.29170801513642974356	     85.30637459553335588680	      0.57280600439034778937	      2.54738522388184929213	      0.00000000000000000000	      0.00000000000000000000
      5.70999999999999996447	     40.06217827382452156826	      4.10057712543711438968	   -176.98246465261868820562	      0.41108848637060491082	      0.80201121182562828960	     -0.61083418846963855042	     69.60383489519820443547	     -9.44212069393096165015	    -16.27555245489912749690	     27.42936444451824939961	      0.47873272128630894873	     -1.82633366088320281406	      0.00000000000000000000	      0.00000000000000000000	     71.77379385147227708330	     -6.21311203553170798841	     -0.44952323793584991751	     26.05482671188924115313	      0.45474251215903527257	     -6.08978249684001848863	      0.00000000000000000000	      0.00000000000000000000	    -17.12327396533521550737	     11.03839296458366625586	      5.52343268426206357447	     47.91594245081785885532	    -15.97053015876565673636	     62.64103462107182451746	      1.73857604467428994433	     87.62648476220216764432	      0.00000000000000000000	      0.00000000000000000000	     36.80927596542306190486	     -2.35671829643922237096	     85.31997785980804849260	      0.58207745632773932876	      2.55463086674737516191	      0.00000000000000000000	      0.00000000000000000000
      5.71499999999999985789	     39.88825941895337479082	      4.10709933118802084095	   -176.96804431099809562511	      0.41067921417018482533	      0.80235759763143510437	     -0.61104723341935529568	     69.42187507614242747422	     -9.40873071003633754117	    -16.25466556656864014485	     27.47305439644862801174	      0.47949525479753213331	     -1.80317896861742910097	      0.00000000000000000000	      0.00000000000000000000	     71.58456495374639416696	     -6.24894601104999036778	     -0.43684196237513051031	     26.09027752010971212826	      0.45536124548497558528	     -6.07822336819445840916	      0.00000000000000000000	      0.00000000000000000000	    -16.75257483954278470151	     11.00673297923180093960	      5.46652770662201881180	     47.53136002353818412303	    -15.93152416898129253298	     62.67486416056421205667	      1.73486757471405339537	     87.63356917101228305000	      0.00000000000000000000	      0.00000000000000000000	     36.59438918826636211179	     -2.40115800303441329078	     85.33890534514820558343	      0.58367547323365609468	      2.56049282215179996314	      0.00000000000000000000	      0.00000000000000000000
      5.71999999999999975131	     39.58071248973082845168	      4.06288817478699559871	   -176.78862382366190786342	      0.41006157133171666773	      0.80273177814132656849	     -0.61067730171211309642	     69.11054875124283114474	     -9.57829506274329922633	    -16.19707611256188428683	     27.64363701842027865041	      0.48247248319762225943	     -1.10918044979212648826	      0.00000000000000000000	      0.00000000000000000000	     71.25110424641053441519	     -6.08604332131592862254	     -0.44095299820729827456	     26.18717490281763815574	      0.45705242384979388737	     -5.59552431032708685876	      0.00000000000000000000	      0.00000000000000000000	    -16.47721630043760754347	     10.96393247759877986880	      5.23488552955493435803	     47.15523194045717048084	    -15.98352516372626652696	     63.17063463133494849444	      1.83938283998345397663	     87.52845083147673221902	      0.00000000000000000000	      0.00000000000000000000	     36.19367550934486388314	     -2.52902470714276406127	     86.06564864187380692329	      0.58243048727934287889	      2.60422429513377862165	      0.00000000000000000000	      0.00000000000000000000
